HIERARCHY
ROOT Hips
{
  OFFSET 5.84602e-005 68.8428 3.50346
  CHANNELS 6 Xposition Yposition Zposition Zrotation Xrotation Yrotation
  JOINT Spine
  {
    OFFSET 0 8.597 -4.6522
    CHANNELS 3 Zrotation Xrotation Yrotation
    JOINT Spine1
    {
      OFFSET 0 7.8454 0.4098
      CHANNELS 3 Zrotation Xrotation Yrotation
      JOINT Spine2
      {
        OFFSET 0 9.7078 -2.1609
        CHANNELS 3 Zrotation Xrotation Yrotation
        JOINT Neck
        {
          OFFSET 0 21.8761 -0.4549
          CHANNELS 3 Zrotation Xrotation Yrotation
          JOINT Head
          {
            OFFSET 0 12.3537 3.3602
            CHANNELS 3 Zrotation Xrotation Yrotation
            End Site
            {
              OFFSET 0.0001 18.9506 0.5657
            }
          }
        }
        JOINT LeftShoulder
        {
          OFFSET 2.2086 21.1115 7.2329
          CHANNELS 3 Zrotation Xrotation Yrotation
          JOINT LeftArm
          {
            OFFSET 13.1193 3.0282 -4.8998
            CHANNELS 3 Zrotation Xrotation Yrotation
            JOINT LeftForeArm
            {
              OFFSET 27.4081 -0.0973053 -0.2375
              CHANNELS 3 Zrotation Xrotation Yrotation
              JOINT LeftHand
              {
                OFFSET 22.8641 0.0662994 -0.1369
                CHANNELS 3 Zrotation Xrotation Yrotation
                JOINT LeftHandIndex1
                {
                  OFFSET 8.8614 0.775009 2.4612
                  CHANNELS 3 Zrotation Xrotation Yrotation
                  JOINT LeftHandIndex2
                  {
                    OFFSET 3.3146 -0.808304 0.5841
                    CHANNELS 3 Zrotation Xrotation Yrotation
                    JOINT LeftHandIndex3
                    {
                      OFFSET 2.2628 -0.552002 0.3989
                      CHANNELS 3 Zrotation Xrotation Yrotation
                      End Site
                      {
                        OFFSET 1.6102 -0.4807 0.2612
                      }
                    }
                  }
                }
                JOINT LeftHandMiddle1
                {
                  OFFSET 8.9937 0.895004 0.2143
                  CHANNELS 3 Zrotation Xrotation Yrotation
                  JOINT LeftHandMiddle2
                  {
                    OFFSET 4.0984 0.0113983 -0.0242
                    CHANNELS 3 Zrotation Xrotation Yrotation
                    JOINT LeftHandMiddle3
                    {
                      OFFSET 2.2716 0.00689697 -0.0138001
                      CHANNELS 3 Zrotation Xrotation Yrotation
                      End Site
                      {
                        OFFSET 2.0404 -0.1441 0.0027
                      }
                    }
                  }
                }
                JOINT LeftHandRing1
                {
                  OFFSET 8.5234 0.597198 -2.0164
                  CHANNELS 3 Zrotation Xrotation Yrotation
                  JOINT LeftHandRing2
                  {
                    OFFSET 3.7188 -0.188293 -0.2328
                    CHANNELS 3 Zrotation Xrotation Yrotation
                    JOINT LeftHandRing3
                    {
                      OFFSET 2.1191 -0.106598 -0.1332
                      CHANNELS 3 Zrotation Xrotation Yrotation
                      End Site
                      {
                        OFFSET 1.8737 -0.2304 -0.0886
                      }
                    }
                  }
                }
                JOINT LeftHandPinky1
                {
                  OFFSET 7.9094 -0.601089 -3.4825
                  CHANNELS 3 Zrotation Xrotation Yrotation
                  JOINT LeftHandPinky2
                  {
                    OFFSET 2.2874 -0.477005 -0.6314
                    CHANNELS 3 Zrotation Xrotation Yrotation
                    JOINT LeftHandPinky3
                    {
                      OFFSET 1.6774 -0.349396 -0.4633
                      CHANNELS 3 Zrotation Xrotation Yrotation
                      End Site
                      {
                        OFFSET 1.4888 -0.4091 -0.3416
                      }
                    }
                  }
                }
                JOINT LeftHandThumb1
                {
                  OFFSET 1.833 -1.3875 1.3896
                  CHANNELS 3 Zrotation Xrotation Yrotation
                  JOINT LeftHandThumb2
                  {
                    OFFSET 3.4129 -1.121 2.5732
                    CHANNELS 3 Zrotation Xrotation Yrotation
                    JOINT LeftHandThumb3
                    {
                      OFFSET 2.2474 -0.804199 1.6192
                      CHANNELS 3 Zrotation Xrotation Yrotation
                      End Site
                      {
                        OFFSET 1.6527 -0.5689 1.1317
                      }
                    }
                  }
                }
              }
            }
          }
        }
        JOINT RightShoulder
        {
          OFFSET -2.2086 21.1115 7.2329
          CHANNELS 3 Zrotation Xrotation Yrotation
          JOINT RightArm
          {
            OFFSET -13.1216 3.0287 -4.9007
            CHANNELS 3 Zrotation Xrotation Yrotation
            JOINT RightForeArm
            {
              OFFSET -27.4081 -0.0973053 -0.2375
              CHANNELS 3 Zrotation Xrotation Yrotation
              JOINT RightHand
              {
                OFFSET -22.8641 0.0664063 -0.1369
                CHANNELS 3 Zrotation Xrotation Yrotation
                JOINT RightHandIndex1
                {
                  OFFSET -8.8614 0.774994 2.4612
                  CHANNELS 3 Zrotation Xrotation Yrotation
                  JOINT RightHandIndex2
                  {
                    OFFSET -3.3146 -0.808304 0.5841
                    CHANNELS 3 Zrotation Xrotation Yrotation
                    JOINT RightHandIndex3
                    {
                      OFFSET -2.2628 -0.552002 0.3989
                      CHANNELS 3 Zrotation Xrotation Yrotation
                      End Site
                      {
                        OFFSET -1.6102 -0.4807 0.2612
                      }
                    }
                  }
                }
                JOINT RightHandMiddle1
                {
                  OFFSET -8.9937 0.894989 0.2143
                  CHANNELS 3 Zrotation Xrotation Yrotation
                  JOINT RightHandMiddle2
                  {
                    OFFSET -4.0984 0.0113983 -0.0242
                    CHANNELS 3 Zrotation Xrotation Yrotation
                    JOINT RightHandMiddle3
                    {
                      OFFSET -2.2716 0.00691223 -0.0138001
                      CHANNELS 3 Zrotation Xrotation Yrotation
                      End Site
                      {
                        OFFSET -2.0404 -0.1441 0.0027
                      }
                    }
                  }
                }
                JOINT RightHandRing1
                {
                  OFFSET -8.5234 0.597198 -2.0164
                  CHANNELS 3 Zrotation Xrotation Yrotation
                  JOINT RightHandRing2
                  {
                    OFFSET -3.7188 -0.188309 -0.2328
                    CHANNELS 3 Zrotation Xrotation Yrotation
                    JOINT RightHandRing3
                    {
                      OFFSET -2.1191 -0.106598 -0.1332
                      CHANNELS 3 Zrotation Xrotation Yrotation
                      End Site
                      {
                        OFFSET -1.8737 -0.2304 -0.0886
                      }
                    }
                  }
                }
                JOINT RightHandPinky1
                {
                  OFFSET -7.9094 -0.601105 -3.4825
                  CHANNELS 3 Zrotation Xrotation Yrotation
                  JOINT RightHandPinky2
                  {
                    OFFSET -2.2874 -0.477005 -0.6314
                    CHANNELS 3 Zrotation Xrotation Yrotation
                    JOINT RightHandPinky3
                    {
                      OFFSET -1.6774 -0.349396 -0.4633
                      CHANNELS 3 Zrotation Xrotation Yrotation
                      End Site
                      {
                        OFFSET -1.4888 -0.4091 -0.3416
                      }
                    }
                  }
                }
                JOINT RightHandThumb1
                {
                  OFFSET -1.833 -1.38751 1.3896
                  CHANNELS 3 Zrotation Xrotation Yrotation
                  JOINT RightHandThumb2
                  {
                    OFFSET -3.41299 -1.12099 2.5732
                    CHANNELS 3 Zrotation Xrotation Yrotation
                    JOINT RightHandThumb3
                    {
                      OFFSET -2.24741 -0.804108 1.6192
                      CHANNELS 3 Zrotation Xrotation Yrotation
                      End Site
                      {
                        OFFSET -1.6527 -0.5689 1.1317
                      }
                    }
                  }
                }
              }
            }
          }
        }
      }
    }
  }
  JOINT RightUpLeg
  {
    OFFSET -9.1966 3.8861 -0.7581
    CHANNELS 3 Zrotation Xrotation Yrotation
    JOINT RightLeg
    {
      OFFSET -0.7359 -41.0265 0
      CHANNELS 3 Zrotation Xrotation Yrotation
      JOINT RightFoot
      {
        OFFSET 0 -40.2855 0
        CHANNELS 3 Zrotation Xrotation Yrotation
        JOINT RightToeBase
        {
          OFFSET 0 -5.6122 11.7359
          CHANNELS 3 Zrotation Xrotation Yrotation
          End Site
          {
            OFFSET 0 0 7.8731
          }
        }
      }
    }
  }
  JOINT LeftUpLeg
  {
    OFFSET 9.1965 3.8864 -0.7581
    CHANNELS 3 Zrotation Xrotation Yrotation
    JOINT LeftLeg
    {
      OFFSET 0.7359 -41.0268 0
      CHANNELS 3 Zrotation Xrotation Yrotation
      JOINT LeftFoot
      {
        OFFSET 0 -40.2855 0
        CHANNELS 3 Zrotation Xrotation Yrotation
        JOINT LeftToeBase
        {
          OFFSET 0 -5.6122 11.7359
          CHANNELS 3 Zrotation Xrotation Yrotation
          End Site
          {
            OFFSET 0 0 7.8731
          }
        }
      }
    }
  }
}
MOTION
Frames:	6
Frame Time:	0.0333333
5.84602e-005 68.8428 3.50346 0 0 -0 0 0 -0 0 0 -0 0 0 -0 0 0 -0 0 0 -0 0 0 -0 0 0 -0 0 0 -0 0 0 -0 0 0 -0 0 0 -0 0 0 -0 0 0 -0 -0.0146107 -8.87603e-005 -2.63497e-007 2.99804e-018 -2.42657e-020 -1.42182e-022 0 0 -0 -0.0187562 -0.001176 5.858e-005 5.06224e-018 3.88251e-019 1.21329e-020 0 0 -0 -0.012269 -0.00324817 0.000675346 -1.74678e-018 3.88251e-019 -0 0 0 -0 0 0 -0 0 0 -0 0 0 -0 0 0 -0 0 0 -0 0 0 -0 0 0 -0 0 0 -0 0 0 -0 0 0 -0 0.0149955 -9.10982e-005 2.64101e-007 -9.69331e-018 1.21329e-020 -4.7394e-023 0 0 -0 0.0189956 -0.00119102 -5.96516e-005 -5.41541e-019 0 2.42657e-020 0 0 -0 0.0122698 -0.00324857 -0.000673756 -2.00796e-019 0 -1.94126e-019 0 0 -0 0 0 -0 0 0 -0 3.39842 1.33031 -0.0637918 -5.65207e-008 0.834868 -0.000436188 -3.39935 -2.16518 -0.0642563 -8.89002e-024 -1.18485e-023 -1.48106e-024 -3.39844 1.35642 0.0640283 -3.18788e-007 0.782166 -0.000588827 3.39931 -2.13858 0.0634662 1.1399e-023 0 -0 
10.7215 47.2024 5.46153 19.1383 -27.8323 36.6367 0.735524 1.1087 0.102694 1.4695 2.21867 0.191202 1.4695 2.21867 0.191197 -3.66813e-005 10.3695 3.48002e-005 1.73369e-006 5.92481 8.11262e-006 -2.7757e-005 -4.84938e-005 8.8584e-006 -28.0334 7.38045 4.85384 1.69824 7.21894 -13.4196 -8.5603 0.105997 0.0129309 3.97569e-016 0 -3.18055e-015 -3.97569e-016 -3.18055e-015 -3.18055e-015 -5.56597e-015 6.36111e-015 -0 3.97569e-016 0 -3.18055e-015 -0.0146248 -8.84866e-005 -1.47756e-006 -7.15625e-015 3.18055e-015 -1.59028e-015 3.97569e-016 0 -3.18055e-015 -0.0187199 -0.00117245 5.81939e-005 1.59028e-015 -3.18055e-015 -4.77083e-015 3.97569e-016 0 -3.18055e-015 -0.0121662 -0.00321755 0.000670408 2.78299e-015 6.36111e-015 -0 3.97569e-016 0 -3.18055e-015 -3.97569e-016 -3.18055e-015 -3.18055e-015 -5.56597e-015 6.36111e-015 -0 -2.32471e-005 -3.70456 1.12661e-005 1.06655 -21.3679 16.7355 6.73586 -3.39976 47.2526 -3.70378 -0.000326323 5.5552 -5.40333e-007 -4.18237e-006 -1.89089e-006 4.55254e-007 -5.90337e-007 -4.11634e-007 1.82102e-006 -2.36135e-006 -1.64654e-006 -5.40333e-007 -4.18237e-006 -1.89089e-006 0.0149756 -8.8493e-005 -2.44829e-006 1.82105e-006 -2.36157e-006 -1.64623e-006 -5.40333e-007 -4.18237e-006 -1.89089e-006 0.0189314 -0.00118677 -5.63918e-005 1.82104e-006 -2.36162e-006 -1.64617e-006 -5.40333e-007 -4.18237e-006 -1.89089e-006 0.012305 -0.00326172 -0.000674964 1.82101e-006 -2.36152e-006 -1.64634e-006 -5.40333e-007 -4.18237e-006 -1.89089e-006 4.55254e-007 -5.90337e-007 -4.11634e-007 1.82102e-006 -2.36135e-006 -1.64654e-006 1.78882 -12.8643 -1.35273 0.0930379 37.0895 -1.449 -3.46269 6.05168 0.183102 1.41629e-007 -3.82e-008 -3.8918e-009 1.95749 -9.35403 2.69229 -0.0824073 26.2152 1.35329 5.15834 14.2939 -1.87144 -4.87636e-007 -1.23177e-007 1.3705e-008 
21.1438 26.6165 3.23792 64.3077 -24.0087 78.933 1.45745 2.21236 0.26285 2.90797 4.43077 0.469702 2.90797 4.43078 0.469735 -0.000184032 20.7391 4.6279e-005 2.81637e-006 11.8496 -2.04471e-006 -1.74077e-005 -1.98958e-005 -1.37466e-005 -57.3492 14.6001 9.95152 6.73225 13.2351 -27.4089 -17.1206 0.211992 0.0258581 2.78299e-015 -1.27222e-014 -3.97569e-016 -3.19883e-007 1.83337e-007 -7.68304e-007 -2.01643e-006 3.78949e-007 -5.12689e-007 2.78299e-015 -1.27222e-014 -3.97569e-016 -0.0146128 -9.14955e-005 -1.02035e-006 -1.9904e-006 -1.6904e-006 -9.95839e-007 2.78299e-015 -1.27222e-014 -3.97569e-016 -0.0187264 -0.00118267 5.90093e-005 -2.01639e-006 3.79037e-007 -5.12607e-007 2.78299e-015 -1.27222e-014 -3.97569e-016 -0.0122289 -0.00324131 0.000672026 -2.01641e-006 3.79024e-007 -5.12594e-007 2.78299e-015 -1.27222e-014 -3.97569e-016 -3.19883e-007 1.83337e-007 -7.68304e-007 -2.01643e-006 3.78949e-007 -5.12689e-007 -1.87824e-005 -7.40905 -1.23775e-005 16.503 -36.8357 40.2074 16.1061 0.744077 94.2223 -7.40751 -0.00067069 11.1104 -1.66555e-006 -2.90864e-006 -3.68119e-006 -7.95139e-015 9.54166e-015 -1.27222e-014 -6.36111e-015 3.18055e-015 3.18055e-015 -1.66555e-006 -2.90864e-006 -3.68119e-006 0.0150351 -8.89304e-005 1.21195e-006 3.18055e-015 -1.59028e-015 -6.36111e-015 -1.66555e-006 -2.90864e-006 -3.68119e-006 0.0190103 -0.00119055 -6.1048e-005 -1.59028e-015 1.59028e-015 -9.54166e-015 -1.66555e-006 -2.90864e-006 -3.68119e-006 0.0122383 -0.00324197 -0.000680632 3.18055e-015 -1.59028e-015 -0 -1.66555e-006 -2.90864e-006 -3.68119e-006 -7.95139e-015 9.54166e-015 -1.27222e-014 -6.36111e-015 3.18055e-015 3.18055e-015 -0.043572 -25.9814 -2.97478 0.031915 71.2308 -1.85072 -3.19354 15.363 -0.783696 -7.95139e-016 -3.97569e-016 -3.18055e-015 8.09314 -19.3264 5.58489 -0.115098 50.1011 2.83328 8.30616 31.4814 -4.38537 -1.00317e-007 -5.83257e-007 -8.21754e-006 
26.1502 12.143 0.52266 90.0018 -4.00327 90.0018 1.95201 2.98137 0.409106 3.89049 5.97483 0.71772 3.89051 5.97483 0.717733 -1.03937e-005 27.9975 3.50325e-005 1.88751e-006 15.997 -7.7412e-007 2.64956e-005 1.05111e-005 9.84336e-006 -78.6817 19.4649 13.7995 12.0731 16.0639 -37.7121 -23.0025 -3.11085e-006 -1.1927e-007 -7.7233e-007 -2.49471e-008 3.52467e-007 -1.87312e-006 -2.57359e-007 1.36372e-007 1.59028e-015 -3.18055e-015 -7.95139e-016 -7.7233e-007 -2.49471e-008 3.52467e-007 -0.0146237 -8.58451e-005 5.10472e-007 1.2626e-007 5.45524e-007 -2.13037e-008 -7.7233e-007 -2.49471e-008 3.52467e-007 -0.0187873 -0.00118142 5.99423e-005 -7.95139e-016 -1.27222e-014 -1.59028e-015 -7.7233e-007 -2.49471e-008 3.52467e-007 -0.0123104 -0.00325788 0.000680968 -3.18055e-015 -3.18055e-015 -1.59028e-015 -7.7233e-007 -2.49471e-008 3.52467e-007 -1.87312e-006 -2.57359e-007 1.36372e-007 1.59028e-015 -3.18055e-015 -7.95139e-016 2.13645e-005 -10.0022 5.44188e-006 35.2101 -40.0617 60.9554 19.0057 8.06938 126.529 -10.0001 -0.000876679 14.9991 -1.82074e-030 8.74653e-015 1.19271e-014 4.96564e-032 7.15625e-015 -3.97569e-016 -6.36111e-015 2.38542e-015 -1.59028e-015 -1.82074e-030 8.74653e-015 1.19271e-014 0.0150132 -9.21235e-005 2.13495e-007 -1.55587e-006 2.75183e-007 -1.73506e-006 -1.82074e-030 8.74653e-015 1.19271e-014 0.018988 -0.00120102 -5.76901e-005 7.1726e-032 -7.95139e-016 5.1684e-015 -1.82074e-030 8.74653e-015 1.19271e-014 0.0122609 -0.0032462 -0.000677196 6.36111e-015 3.18055e-015 7.15625e-015 -1.82074e-030 8.74653e-015 1.19271e-014 4.96564e-032 7.15625e-015 -3.97569e-016 -6.36111e-015 2.38542e-015 -1.59028e-015 -1.6887 -35.0637 -4.7553 -179.998 84.9722 177.249 -2.88774 21.8685 -1.2758 -2.78591e-007 -3.21923e-007 2.75371e-008 12.9104 -26.1763 7.93539 -0.0614268 66.5652 2.43533 10.3133 43.8435 -4.90834 4.99772e-007 4.89883e-007 9.61889e-006 
27.1841 7.91832 -0.149756 96.6742 2.35071 89.7239 2.09136 3.20039 0.456174 4.16688 6.41526 0.796756 4.16691 6.41525 0.796753 -0.000182842 30.0716 0.000174947 -6.39133e-006 17.1819 -8.88619e-006 5.59557e-006 -1.00606e-005 -1.05312e-005 -84.9069 20.8151 14.9559 13.9263 16.5162 -40.841 -24.4229 -0.740854 -0.0924993 9.50583e-007 2.19387e-008 4.2898e-008 7.77625e-007 4.64854e-008 -3.45915e-007 7.77625e-007 4.64854e-008 -3.45915e-007 9.50583e-007 2.19387e-008 4.2898e-008 -0.0145987 -9.15777e-005 -1.0898e-006 7.77619e-007 4.65295e-008 -3.45909e-007 9.50583e-007 2.19387e-008 4.2898e-008 -0.0187572 -0.00117287 5.86906e-005 8.13957e-007 -6.37049e-007 -4.26727e-007 9.50583e-007 2.19387e-008 4.2898e-008 -0.0122709 -0.00324845 0.000674767 7.77611e-007 4.65165e-008 -3.45931e-007 9.50583e-007 2.19387e-008 4.2898e-008 7.77625e-007 4.64854e-008 -3.45915e-007 7.77625e-007 4.64854e-008 -3.45915e-007 -4.60219e-006 -10.7431 -1.56489e-005 40.9458 -39.5479 66.7454 18.6674 10.2232 135.84 -10.7408 -0.000945533 16.1101 4.20534e-006 -6.22935e-007 4.31781e-006 -9.54166e-015 -4.77083e-015 1.59028e-015 6.308e-006 -9.34403e-007 6.47672e-006 4.20534e-006 -6.22935e-007 4.31781e-006 0.0149735 -9.26346e-005 -5.61974e-006 6.30739e-006 -9.33552e-007 6.47683e-006 4.20534e-006 -6.22935e-007 4.31781e-006 0.018996 -0.00119473 -5.80987e-005 5.17268e-006 -5.92167e-007 5.40821e-006 4.20534e-006 -6.22935e-007 4.31781e-006 0.0122715 -0.00324469 -0.000678617 6.30769e-006 -9.33538e-007 6.47667e-006 4.20534e-006 -6.22935e-007 4.31781e-006 -9.54166e-015 -4.77083e-015 1.59028e-015 6.308e-006 -9.34403e-007 6.47672e-006 -2.5892 -37.5953 -5.82644 179.992 78.1792 176.924 -2.75156 23.7199 -1.47807 -2.95618e-007 -3.06005e-007 3.25233e-008 14.3793 -28.1339 8.67903 -0.121715 71.2113 2.90534 11.2762 47.3225 -5.59577 -7.15625e-015 -2.39536e-014 -9.54166e-015 
26.6868 10.0373 0.173071 93.3355 -0.816808 90.048 2.02176 3.0909 0.432378 4.02896 6.19509 0.75677 4.02896 6.1951 0.75677 -4.1506e-005 29.0345 2.14887e-005 -5.48629e-006 16.5895 1.89027e-005 -6.02152e-006 -1.55124e-005 2.27334e-006 -81.7868 20.1425 14.3742 13.2129 16.1184 -39.558 -23.1696 -1.79966 -0.223883 -2.38542e-015 -1.27222e-014 -3.97569e-015 8.43486e-010 -2.70294e-006 9.51607e-008 3.19917e-007 -4.11536e-007 4.29661e-008 -2.38542e-015 -1.27222e-014 -3.97569e-015 -0.0145911 -9.30611e-005 -5.31786e-007 -4.77083e-015 6.36111e-015 -0 -2.38542e-015 -1.27222e-014 -3.97569e-015 -0.01875 -0.00118071 5.8511e-005 -2.38542e-015 0 -7.95139e-016 -2.38542e-015 -1.27222e-014 -3.97569e-015 -0.0122443 -0.00323889 0.000674605 -7.95139e-016 -6.36111e-015 -7.95139e-016 -2.38542e-015 -1.27222e-014 -3.97569e-015 8.43486e-010 -2.70294e-006 9.51607e-008 3.19917e-007 -4.11536e-007 4.29661e-008 2.77103e-006 -10.3727 3.98991e-006 38.0846 -39.8832 63.8872 18.4819 8.80058 131.238 -10.3704 -0.000912274 15.5546 5.61442e-006 -1.03131e-006 3.15966e-006 4.28532e-006 -1.49211e-007 4.41109e-006 3.07834e-006 1.22315e-007 2.87646e-006 5.61442e-006 -1.03131e-006 3.15966e-006 0.0150136 -9.60155e-005 6.84101e-006 3.07948e-006 1.22685e-007 2.87644e-006 5.61442e-006 -1.03131e-006 3.15966e-006 0.0190183 -0.00119146 -6.18998e-005 4.28487e-006 -1.48446e-007 4.41108e-006 5.61442e-006 -1.03131e-006 3.15966e-006 0.012293 -0.00324952 -0.000673612 4.28513e-006 -1.48628e-007 4.41101e-006 5.61442e-006 -1.03131e-006 3.15966e-006 4.28532e-006 -1.49211e-007 4.41109e-006 3.07834e-006 1.22315e-007 2.87646e-006 -2.90921 -36.2192 -6.15416 179.995 81.5782 177.092 -2.82399 22.8015 -1.37207 5.68448e-008 -1.20231e-006 4.02229e-008 13.6168 -27.1482 8.29941 -0.147775 68.757 3.10235 10.7507 45.5678 -5.22708 5.26497e-007 -6.70526e-007 -4.27087e-008 
